<?xml version="1.0" encoding="UTF-8"?>
<!-- Generator: https://ezgif.com/png-to-svg -->
<svg version="1.1" xmlns="http://www.w3.org/2000/svg" width="512" height="512">
<path d="M0 0 C0.8 0.61 1.6 1.22 2.43 1.84 C18.04 14 32.97 28.29 45 44 C45.42 44.54 45.84 45.09 46.27 45.65 C53.95 55.64 60.69 66.1 67 77 C67.39 77.68 67.79 78.35 68.19 79.05 C100.32 134.9 106.89 203.61 90.63 265.43 C87.27 277.67 83.11 289.39 78 301 C77.66 301.78 77.33 302.56 76.98 303.36 C68.52 322.75 57.23 340.53 44 357 C43.53 357.58 43.07 358.17 42.58 358.77 C31.25 372.76 18.44 386.2 4 397 C3.35 397.49 2.7 397.98 2.03 398.48 C-7.96 405.96 -18.1 412.92 -29 419 C-29.72 419.4 -30.43 419.81 -31.17 420.22 C-87.23 451.47 -154.96 459.57 -217 443 C-250.76 433.4 -281.58 418.02 -309 396 C-309.58 395.53 -310.17 395.07 -310.77 394.58 C-324.76 383.25 -338.21 370.44 -349 356 C-349.49 355.34 -349.99 354.68 -350.5 354 C-357.47 344.63 -364.27 335.19 -370 325 C-370.62 323.9 -370.62 323.9 -371.26 322.77 C-403.56 264.84 -411.58 196.46 -394.28 132.45 C-382.66 91.73 -361.28 55.43 -332 25 C-331.45 24.42 -330.9 23.84 -330.33 23.25 C-322.12 14.67 -313.56 7.04 -304 0 C-303.42 -0.43 -302.83 -0.87 -302.23 -1.31 C-221.94 -60.73 -110.9 -68.1 0 0 Z " fill="#FDFEFE" transform="translate(408,56)"/>
<path d="M0 0 C7.86 2.25 7.86 2.25 10.73 3.85 C11.38 4.2 12.03 4.55 12.7 4.92 C13.37 5.3 14.05 5.67 14.75 6.06 C22.59 10.32 30.57 14.19 38.66 17.96 C44.8 20.83 50.82 23.88 56.78 27.09 C63.6 30.77 70.48 34.23 77.5 37.5 C83.51 40.3 89.42 43.22 95.25 46.38 C102.87 50.48 110.63 54.24 118.46 57.93 C126.04 61.51 133.5 65.25 141 69 C141 84.18 141 99.36 141 115 C129.12 115 117.24 115 105 115 C105.12 102.38 105.12 102.38 105.24 98.43 C105.25 92.16 105.25 92.16 102.08 87.04 C99.46 85.44 96.82 84.22 94 83 C92.17 82.01 90.34 81 88.52 79.98 C86.68 78.98 84.84 77.99 83 77 C81.28 76.07 79.57 75.14 77.85 74.21 C77 73.75 76.15 73.29 75.28 72.81 C65.74 67.64 56.27 62.35 46.88 56.92 C46.06 56.45 45.25 55.98 44.41 55.5 C43.7 55.09 42.99 54.67 42.26 54.25 C39.55 52.75 36.77 51.38 34 50 C34 87.62 34 125.24 34 164 C57.43 164 80.86 164 105 164 C105 157.07 105 150.14 105 143 C116.88 143 128.76 143 141 143 C141 160.16 141 177.32 141 195 C94.47 195 47.94 195 0 195 C0 130.65 0 66.3 0 0 Z " fill="#004DF9" transform="translate(186,291)"/>
<path d="M0 0 C46.2 0 92.4 0 140 0 C140 17.82 140 35.64 140 54 C128.12 54 116.24 54 104 54 C104 47.73 104 41.46 104 35 C80.57 35 57.14 35 33 35 C33 52.49 33 69.98 33 88 C35.97 88.99 35.97 88.99 39 90 C40.26 90.53 41.51 91.08 42.74 91.66 C43.41 91.98 44.07 92.29 44.76 92.61 C45.46 92.95 46.16 93.28 46.88 93.62 C47.99 94.15 47.99 94.15 49.12 94.69 C56.8 98.35 64.41 102.16 72 106 C82.26 111.18 92.57 116.18 103 121 C103.33 115.72 103.66 110.44 104 105 C115.88 105 127.76 105 140 105 C140 128.43 140 151.86 140 176 C128.8 170.7 117.65 165.4 106.58 159.84 C105.3 159.2 104.02 158.56 102.74 157.92 C99.43 156.26 96.12 154.6 92.81 152.94 C89.48 151.27 86.14 149.6 82.81 147.93 C78.34 145.69 73.87 143.45 69.41 141.21 C64.88 138.94 60.36 136.68 55.83 134.42 C55.1 134.06 54.36 133.69 53.6 133.31 C51.79 132.41 49.98 131.51 48.17 130.61 C44.64 128.82 41.16 126.95 37.69 125.06 C31.22 121.57 24.63 118.39 17.96 115.32 C11.79 112.46 6.02 109.28 0 106 C0 71.02 0 36.04 0 0 Z " fill="#024EF9" transform="translate(187,150)"/>
<path d="M0 0 C30.54 -4.41 30.54 -4.41 41.99 3.42 C49.72 9.4 56.22 16.76 62.63 24.1 C65.45 27.29 68.38 30.37 71.3 33.46 C79.27 41.94 86.98 50.63 94.6 59.42 C96.59 61.67 98.68 63.82 100.81 65.94 C101.56 66.69 102.31 67.44 103.08 68.21 C104.88 70.06 104.88 70.06 107 71 C107 47.57 107 24.14 107 0 C118.22 0 129.44 0 141 0 C141 34.98 141 69.96 141 106 C88.97 106 88.97 106 66.57 84.96 C60.69 79.44 54.79 73.94 48.86 68.48 C41.56 61.76 34.33 54.98 27.08 48.21 C19.73 41.33 12.36 34.47 4.95 27.64 C0 23.09 0 23.09 -0.11 20.78 C-0.11 19.82 -0.1 18.86 -0.1 17.87 C-0.1 16.94 -0.09 16.01 -0.09 15.05 C-0.08 13.86 -0.07 12.67 -0.06 11.44 C-0.05 9.4 -0.04 7.36 -0.03 5.32 C-0.02 3.54 -0.01 1.77 0 0 Z " fill="#024EF9" transform="translate(186,30)"/>
<path d="M0 0 C11.88 0 23.76 0 36 0 C36 11.22 36 22.44 36 34 C24.12 34 12.24 34 0 34 C0 22.78 0 11.56 0 0 Z " fill="#024EF9" transform="translate(186,102)"/>
<path d="M0 0 C2.47 0.5 2.47 0.5 5 1 C4.67 1.66 4.34 2.32 4 3 C3.34 3 2.68 3 2 3 C2 65.37 2 127.74 2 192 C47.54 192 93.08 192 140 192 C140.33 192.99 140.66 193.98 141 195 C94.47 195 47.94 195 0 195 C0 130.65 0 66.3 0 0 Z " fill="#326DFA" transform="translate(186,291)"/>
<path d="M0 0 C11.88 0 23.76 0 36 0 C36 0.99 36 1.98 36 3 C24.12 3 12.24 3 0 3 C0 2.01 0 1.02 0 0 Z " fill="#E0E9FE" transform="translate(291,406)"/>
</svg>
